<svg width="135" height="40" viewBox="0 0 135 40" fill="none" xmlns="http://www.w3.org/2000/svg">
<path d="M33.4202 16.6807C33.3593 16.78 33.2888 16.8929 33.2088 17.0177C31.7187 19.3484 26.9484 25.8935 19.5041 27.4735C14.111 28.6186 9.3579 28.1736 6.05946 27.1652C5.83945 27.0179 5.62731 26.8718 5.42305 26.727C0.867243 23.4799 6.39631 18.6146 10.6739 17.8954C11.8558 17.6968 14.1069 18.1915 16.6921 18.7535C16.0202 19.6768 15.6716 20.5221 16.1012 21.1338C15.6107 22.2538 15.9866 23.1356 18.289 23.4112C20.2687 23.6494 22.2862 22.661 24.2713 21.3921C24.9805 20.9393 25.6855 20.4501 26.3829 19.9683C27.0452 19.904 27.6584 19.7806 28.2053 19.5829C30.5664 18.7285 32.256 17.7665 33.1043 17C33.2163 16.9004 33.3218 16.7937 33.4202 16.6807V16.6807Z" fill="url(#paint0_linear_1102_4964)"/>
<path d="M56.6531 9.00967C56.6533 9.35476 56.5822 9.69615 56.4443 10.0124C56.3063 10.3286 56.1046 10.6128 55.8517 10.847C55.8099 10.8862 55.7667 10.9236 55.7221 10.9595L55.4444 11.1549C51.2031 14.1515 44.9704 19.1858 39.6418 26.0033L39.5113 26.17C39.469 26.2238 39.4272 26.278 39.3849 26.3326C34.3241 32.8951 26.8022 33.9331 19.848 32.6883C18.4608 32.4376 17.09 32.1029 15.7431 31.6862C11.9246 30.5134 8.50346 28.7972 6.06055 27.1643C9.35898 28.1727 14.1121 28.6177 19.5052 27.4727C27.3486 25.8079 32.2235 18.6315 33.4213 16.678C33.5763 16.4958 33.6736 16.3314 33.7104 16.187C33.8136 15.7816 33.4377 15.5434 32.5217 15.5876C31.8003 15.6222 31.0557 15.8445 30.2942 16.187C28.3745 17.0497 26.3394 18.6761 24.2733 19.9975C22.2882 21.2664 20.273 22.2548 18.291 22.0166C15.3454 21.6627 15.5531 20.3186 16.6941 18.7513C17.2973 17.9214 18.1624 17.0287 18.9593 16.187C19.1411 15.9952 19.3193 15.8058 19.4902 15.6204C21.8199 13.0898 30.1842 4.45085 38.6722 4.45313C43.5321 4.45313 49.9617 5.55901 54.6566 6.55558C55.2205 6.67179 55.7271 6.97942 56.0908 7.42653C56.4546 7.87364 56.6532 8.43283 56.6531 9.00967Z" fill="#3B82F6"/>
<path d="M26.3827 19.9688C25.684 20.4506 24.9803 20.9398 24.2712 21.3926C22.286 22.6615 20.2709 23.6499 18.2889 23.4117C15.9865 23.1352 15.6105 22.2534 16.101 21.1343C16.4001 21.5611 17.0784 21.874 18.2889 22.0193C20.2686 22.2575 22.286 21.2691 24.2712 20.0002C24.9748 20.0418 25.6806 20.0313 26.3827 19.9688Z" fill="#1D5DCE"/>
<path d="M56.6531 9.00942C56.6533 9.35451 56.5822 9.69591 56.4443 10.0121C56.3064 10.3283 56.1046 10.6125 55.8517 10.8468C55.8099 10.886 55.7667 10.9233 55.7222 10.9593L55.4444 11.1547C51.2032 14.1512 44.9704 19.1856 39.6418 26.0031L39.5114 26.1698C39.4691 26.2235 39.4273 26.2777 39.385 26.3324C34.3241 32.8948 26.8022 33.9328 19.848 32.688C18.4608 32.4373 17.09 32.1027 15.7432 31.686C23.9565 31.282 30.2466 31.5644 36.9548 25.0384C42.4334 19.708 49.103 14.629 54.0952 10.9315C55.213 10.1035 56.0613 8.84773 55.9204 7.24219C56.1524 7.47405 56.3366 7.74948 56.4623 8.05271C56.5881 8.35595 56.6529 8.68105 56.6531 9.00942V9.00942Z" fill="url(#paint1_linear_1102_4964)"/>
<path d="M62.9141 16.5962V4.95703H66.4243C67.6159 4.95703 68.6 5.40871 69.3764 6.31206C70.1528 7.21541 70.5412 8.37854 70.5415 9.80143V11.76C70.5415 13.1829 70.1531 14.3446 69.3764 15.2452C68.5997 16.1459 67.6156 16.5962 66.4243 16.5962H62.9141ZM65.187 6.77163V14.7816H66.2961C66.9289 14.7816 67.4168 14.5055 67.7599 13.9535C68.1029 13.4015 68.2745 12.6694 68.2745 11.7572V9.78048C68.2745 8.87379 68.1029 8.14503 67.7599 7.59421C67.4168 7.0434 66.9289 6.7686 66.2961 6.76981L65.187 6.77163Z" fill="#08152D"/>
<path d="M80.0866 12.4161C80.0866 13.7807 79.7168 14.8465 78.9774 15.6135C78.2379 16.3805 77.2539 16.7643 76.0253 16.7649C74.7971 16.7649 73.8158 16.3811 73.0815 15.6135C72.3472 14.8459 71.9802 13.7801 71.9805 12.4161V9.1558C71.9805 7.79667 72.3475 6.7295 73.0815 5.95429C73.8155 5.17908 74.7942 4.79132 76.0176 4.79102C77.241 4.79102 78.225 5.17877 78.9696 5.95429C79.7142 6.72981 80.0866 7.79698 80.0866 9.1558V12.4161ZM77.8287 9.12984C77.8287 8.29633 77.6744 7.66702 77.3659 7.24191C77.0574 6.8168 76.608 6.60425 76.0176 6.60425C75.4218 6.60425 74.9749 6.81544 74.677 7.23781C74.3791 7.66019 74.2311 8.29086 74.2329 9.12984V12.417C74.2329 13.2614 74.3844 13.8947 74.6875 14.3168C74.9906 14.7388 75.4373 14.95 76.0276 14.9503C76.6125 14.9503 77.0593 14.7391 77.3682 14.3168C77.677 13.8944 77.8312 13.2611 77.8309 12.417L77.8287 9.12984Z" fill="#08152D"/>
<path d="M89.8564 16.5962H87.5984L84.0482 9.15512L84.0004 9.17106V16.5952H81.7275V4.95703H84.0004L87.553 12.3917L87.5984 12.3753V4.95703H89.8564V16.5962Z" fill="#08152D"/>
<path d="M97.1597 14.1102H94.0986L93.4763 16.5962H91.1865L94.4595 4.95703H96.8233L100.086 16.5962H97.7966L97.1597 14.1102ZM94.5591 12.2979H96.6956L95.65 8.18086H95.6023L94.5591 12.2979Z" fill="#08152D"/>
<path d="M106.953 6.77163H104.336V16.5962H102.07V6.77163H99.4697V4.95703H106.953V6.77163Z" fill="#08152D"/>
<path d="M110.587 16.5962H108.329V4.95703H110.587V16.5962Z" fill="#08152D"/>
<path d="M120.46 12.4161C120.46 13.7807 120.09 14.8465 119.35 15.6135C118.611 16.3805 117.627 16.7643 116.399 16.7649C115.17 16.7649 114.189 16.3811 113.455 15.6135C112.721 14.8459 112.354 13.7801 112.354 12.4161V9.1558C112.354 7.79667 112.721 6.7295 113.455 5.95429C114.189 5.17908 115.167 4.79132 116.391 4.79102C117.614 4.79102 118.598 5.17877 119.343 5.95429C120.087 6.72981 120.46 7.79698 120.46 9.1558V12.4161ZM118.202 9.12984C118.202 8.29633 118.047 7.66702 117.739 7.24191C117.43 6.8168 116.981 6.60425 116.391 6.60425C115.795 6.60425 115.348 6.81544 115.051 7.23781C114.753 7.66019 114.604 8.29071 114.604 9.12939V12.417C114.604 13.2614 114.755 13.8947 115.058 14.3168C115.361 14.7388 115.808 14.95 116.399 14.9503C116.984 14.9503 117.43 14.7391 117.739 14.3168C118.047 13.8944 118.202 13.2611 118.202 12.417V9.12984Z" fill="#08152D"/>
<path d="M130.228 16.5962H127.971L124.419 9.15512L124.371 9.17106V16.5952H122.098V4.95703H124.371L127.921 12.3917L127.969 12.3753V4.95703H130.226L130.228 16.5962Z" fill="#08152D"/>
<path d="M70.1981 29.2238L70.2222 29.272C70.2328 30.551 69.9297 31.5156 69.313 32.1657C68.6963 32.8158 67.7871 33.1408 66.5855 33.1408C65.383 33.1408 64.4229 32.7717 63.7053 32.0336C62.9877 31.2954 62.6285 30.2496 62.6279 28.8963V25.4188C62.6279 24.0706 62.9751 23.0248 63.6694 22.2815C64.3637 21.5381 65.2931 21.1663 66.4578 21.166C67.6915 21.166 68.6235 21.4965 69.2539 22.1576C69.8842 22.8186 70.21 23.7965 70.2312 25.0913L70.2076 25.1368H68.0215C68.0518 24.3722 67.948 23.8213 67.7101 23.4839C67.4722 23.1466 67.0548 22.978 66.4578 22.9783C65.9468 22.9783 65.5559 23.1784 65.285 23.5786C65.014 23.9789 64.8784 24.5843 64.8781 25.3951V28.8917C64.8781 29.7134 65.023 30.3242 65.3127 30.7241C65.6024 31.124 66.0267 31.324 66.5855 31.324C67.1328 31.324 67.5144 31.1654 67.7301 30.8484C67.9459 30.5314 68.0403 29.9891 68.0134 29.2215L70.1981 29.2238Z" fill="#08152D"/>
<path d="M78.916 27.865H75.0144V31.1585H79.5979V32.9731H72.7383V21.334H79.5838V23.1486H75.0121V26.0504H78.916V27.865Z" fill="#08152D"/>
<path d="M90.0531 32.9731H87.7952L84.2449 25.5307L84.1967 25.5466V32.9708H81.9238V21.334H84.1967L87.747 28.7682L87.7952 28.7523V21.334H90.0531V32.9731Z" fill="#08152D"/>
<path d="M99.5746 23.1486H96.9576V32.9731H94.6919V23.1486H92.0908V21.334H99.5746V23.1486Z" fill="#08152D"/>
<path d="M107.986 27.865H104.084V31.1585H108.672V32.9731H101.811V21.334H108.656V23.1486H104.084V26.0504H107.986V27.865Z" fill="#08152D"/>
<path d="M113.271 28.3442V32.9727H111.005V21.3418H114.795C115.938 21.3418 116.835 21.6442 117.487 22.2491C118.139 22.854 118.465 23.6946 118.465 24.771C118.465 25.3783 118.328 25.9018 118.055 26.3415C117.783 26.7812 117.386 27.1316 116.867 27.3927C117.462 27.5956 117.892 27.9314 118.155 28.4002C118.418 28.8691 118.55 29.4553 118.55 30.1588V30.9823C118.553 31.3276 118.59 31.6717 118.662 32.0094C118.736 32.3738 118.866 32.6389 119.053 32.8047V32.9727H116.707C116.521 32.8021 116.404 32.5248 116.356 32.141C116.308 31.7512 116.284 31.3587 116.284 30.9659V30.1748C116.284 29.5942 116.166 29.1439 115.929 28.8238C115.693 28.5038 115.354 28.3439 114.912 28.3442H113.271ZM113.271 26.5296H114.787C115.249 26.5296 115.6 26.3884 115.84 26.106C116.079 25.8236 116.199 25.4213 116.199 24.899C116.199 24.3661 116.079 23.9424 115.84 23.6278C115.6 23.3132 115.252 23.1561 114.794 23.1564H113.27L113.271 26.5296Z" fill="#08152D"/>
<defs>
<linearGradient id="paint0_linear_1102_4964" x1="3.02105" y1="22.3499" x2="32.867" y2="22.4466" gradientUnits="userSpaceOnUse">
<stop stop-color="#3B82F6"/>
<stop offset="0.27" stop-color="#3479EF"/>
<stop offset="0.71" stop-color="#2362DB"/>
<stop offset="1" stop-color="#144ECA"/>
</linearGradient>
<linearGradient id="paint1_linear_1102_4964" x1="14.819" y1="20.1088" x2="55.8813" y2="20.2422" gradientUnits="userSpaceOnUse">
<stop stop-color="#2A73E5"/>
<stop offset="1" stop-color="#3B82F6"/>
</linearGradient>
</defs>
</svg>
